<svg width="14" height="20" viewBox="0 0 14 20" fill="none" xmlns="http://www.w3.org/2000/svg">
<path d="M7 14C9.206 14 11 12.205 11 10V4C11 1.794 9.206 0 7 0C4.794 0 3 1.794 3 4V10C3 12.205 4.794 14 7 14ZM14 10V8C14 7.73478 13.8946 7.48043 13.7071 7.29289C13.5196 7.10536 13.2652 7 13 7C12.7348 7 12.4804 7.10536 12.2929 7.29289C12.1054 7.48043 12 7.73478 12 8V10C12 12.757 9.757 15 7 15C4.243 15 2 12.757 2 10V8C2 7.73478 1.89464 7.48043 1.70711 7.29289C1.51957 7.10536 1.26522 7 1 7C0.734784 7 0.48043 7.10536 0.292893 7.29289C0.105357 7.48043 0 7.73478 0 8V10C0 13.52 2.613 16.432 6 16.92V18H3C2.73478 18 2.48043 18.1054 2.29289 18.2929C2.10536 18.4804 2 18.7348 2 19C2 19.2652 2.10536 19.5196 2.29289 19.7071C2.48043 19.8946 2.73478 20 3 20H11C11.2652 20 11.5196 19.8946 11.7071 19.7071C11.8946 19.5196 12 19.2652 12 19C12 18.7348 11.8946 18.4804 11.7071 18.2929C11.5196 18.1054 11.2652 18 11 18H8V16.92C11.387 16.432 14 13.52 14 10Z" fill="#699bf7"></path>
</svg>
